<?xml version="1.0" encoding="UTF-8" standalone="no"?>
<svg
   xml:space="preserve"
   width="40"
   height="40"
   style="shape-rendering: geometricprecision; text-rendering: geometricprecision; image-rendering: optimizequality; fill-rule: evenodd; clip-rule: evenodd;"
   viewBox="0 0 6.827 6.827"
   version="1.1"
   id="svg14"
   sodipodi:docname="red_spot.svg"
   inkscape:version="1.2.2 (b0a8486541, 2022-12-01)"
   xmlns:inkscape="http://www.inkscape.org/namespaces/inkscape"
   xmlns:sodipodi="http://sodipodi.sourceforge.net/DTD/sodipodi-0.dtd"
   xmlns="http://www.w3.org/2000/svg"
   xmlns:svg="http://www.w3.org/2000/svg"><sodipodi:namedview
     id="namedview16"
     pagecolor="#ffffff"
     bordercolor="#000000"
     borderopacity="0.25"
     inkscape:showpageshadow="2"
     inkscape:pageopacity="0.0"
     inkscape:pagecheckerboard="0"
     inkscape:deskcolor="#d1d1d1"
     showgrid="false"
     inkscape:zoom="12.835568"
     inkscape:cx="14.023532"
     inkscape:cy="14.023532"
     inkscape:window-width="1920"
     inkscape:window-height="1021"
     inkscape:window-x="0"
     inkscape:window-y="0"
     inkscape:window-maximized="1"
     inkscape:current-layer="Layer_x0020_1" /><defs
     id="defs4"><style
       id="style2">.fil0{fill:none}</style></defs><g
     id="Layer_x0020_1"><path
       id="_486581456"
       class="fil0"
       d="M 0,0 H 6.827 V 6.827 H 0 Z" /><path
       id="_486581144"
       class="fil0"
       d="m 0.853,0.853 h 5.12 v 5.12 h -5.12 z" /><path
       d="M4.702 1.386a1.772 1.772 0 0 0-1.29-.533c-.503 0-.934.18-1.287.533a1.726 1.726 0 0 0-.533 1.29c0 .337.081.64.239.912l.034.051 1.512 2.334L4.983 3.61a1.78 1.78 0 0 0 .251-.933c0-.507-.179-.937-.532-1.29z"
       style="fill:#ff0000"
       id="path9" /><path
       d="M3.411 1.859a.808.808 0 0 0-.618.255.839.839 0 0 0-.255.618c0 .243.085.447.255.622a.84.84 0 0 0 .618.255.856.856 0 0 0 .622-.255.856.856 0 0 0 .256-.622.84.84 0 0 0-.256-.618.822.822 0 0 0-.622-.255z"
       style="fill: rgb(238, 238, 238);"
       id="path11" /></g></svg>
